# xmcd CD database file
#
# Track frame offsets:
#	150
#	35662
#	63915
#	92335
#	115297
#	150062
#	183485
#
# Disc length: 2898 seconds
#
# Revision: 0
# Processed by: cddbd v1.5.1PL0 Copyright (c) Steve Scherf et al.
# Submitted via: CDex 1.51
#
DISCID=4a0b5007
DTITLE=羽田健太郎 - The Beatles On Concerto
DYEAR=1992
DGENRE=Pop
TTITLE0=FOOL ON THE HILL
TTITLE1=MICHELL
TTITLE2=HEY JUDE
TTITLE3=THE LONG AND WINDING ROAD
TTITLE4=YESTERDAY
TTITLE5=AND I LOVE HER
TTITLE6=LET IT BE
EXTD=YEAR: 1992
EXTT0=
EXTT1=
EXTT2=
EXTT3=
EXTT4=
EXTT5=
EXTT6=
PLAYORDER=
